# xmcd
#
# Track frame offsets:
#	150
#	15828
#	32629
#	51706
#	67668
#	83074
#	100868
#	114780
#	132714
#	149763
#	167089
#	187211
#	203531
#	224245
#	247125
#	261243
#	276482
#
# Disc length: 3929
#
# Revision: 2
# Processed by: cddbd v1.5.1PL0 Copyright (c) Steve Scherf et al.
# Submitted via: audiograbber 1.83.01
# Normalized: r1:TDELIM( - )
#
DISCID=0a0f5711
DTITLE=Charbusters Vol. 3 - 90's Country Disc 2
DYEAR=1900
DGENRE=Karaoke Country
TTITLE0=Joe Dee Messina - Bye Bye
TTITLE1=Mark Willis - Don't Laught At Me
TTITLE2=LeAnn Rimes - Commitment
TTITLE3=Toby Keith - Getcha Some
TTITLE4=Lee Ann Womack - I'll Think Of A Reason Later
TTITLE5=The Warren Brothers - Guilty
TTITLE6=Dixie Chicks - Let 'Er Rip
TTITLE7=Ty Herndon - The Hands Of A Working Man
TTITLE8=Now That I Found You - Terri Clark
TTITLE9=Mark Chesnutt - I Don't Want To Miss A Thing
TTITLE10=Faith Hill - Let Me Let Go
TTITLE11=George Strait - I Just Want To Dance With You
TTITLE12=Faith Hill with Tim McGraw - Just To Hear You Say That You Love Me
TTITLE13=Steve Wariner - Holes In The Floor Of Heaven
TTITLE14=Trisha Yearwood - Powerful Thing
TTITLE15=Brooks and Dunn - Husbands And Wives
TTITLE16=Jo Dee Messina - Because You Love Me
EXTD=
EXTT0=
EXTT1=
EXTT2=
EXTT3=
EXTT4=
EXTT5=
EXTT6=
EXTT7=
EXTT8=
EXTT9=
EXTT10=
EXTT11=
EXTT12=
EXTT13=
EXTT14=
EXTT15=
EXTT16=
PLAYORDER=
